# xmcd CD database file
#
# Track frame offsets:
#	150
#	13497
#	25357
#	39367
#	52040
#	70276
#	81516
#	93363
#	107475
#	117112
#	126673
#	141270
#	155343
#	170188
#	181696
#	193945
#	207368
#	215359
#	232102
#	243489
#
# Disc length: 3375 seconds
#
# Revision: 1
# Processed by: cddbd v1.4PL0 Copyright (c) Steve Scherf et al.
# Submitted via: CDex 1.50beta9
#
DISCID=2e0d2d14
DTITLE=Frank Sinatra - Frank Sinatra CD-2
DYEAR=1998
DGENRE=Jazz
TTITLE0=I Get A Kick Out Of You
TTITLE1=Rewitched
TTITLE2=The Lady Is A Tramp
TTITLE3=You Make Me Feel So Young
TTITLE4=Night And Day
TTITLE5=Dancing In The Dark
TTITLE6=My Funny Valentine
TTITLE7=Embraceable You
TTITLE8=At Long Last Love
TTITLE9=I Could Have Danced All Night
TTITLE10=Stardust
TTITLE11=I'll Be Seeing You
TTITLE12=Tea ForTwo
TTITLE13=Blue Shoes
TTITLE14=On The Road To Mandalay
TTITLE15=The Moon Was Yellow
TTITLE16=Somebody Loves Me
TTITLE17=This Love Of Mine
TTITLE18=When Your Love Has Gone
TTITLE19=All the way
EXTD=YEAR: 1998
EXTT0=
EXTT1=
EXTT2=
EXTT3=
EXTT4=
EXTT5=
EXTT6=
EXTT7=
EXTT8=
EXTT9=
EXTT10=
EXTT11=
EXTT12=
EXTT13=
EXTT14=
EXTT15=
EXTT16=
EXTT17=
EXTT18=
EXTT19=
PLAYORDER=
